<?xml version="1.0" encoding="utf-8"?>
<svg height="800px" width="800px" version="1.1" id="Layer_1" xmlns="http://www.w3.org/2000/svg" viewBox="0 0 512 512" xmlns:bx="https://boxy-svg.com"><defs><bx:export><bx:file format="svg" href="#object-0"/><bx:file format="png" href="#object-0"/><bx:file format="svg" path="Untitled 2.svg"/></bx:export></defs><path style="fill:#A63F00;" d="M222.871,478.871H512v-36.141H344.398C301.98,442.729,222.871,441.926,222.871,478.871z"/><circle style="fill:#FF6200" cx="222.871" cy="256" r="222.871" id="object-0"/><circle style="fill:#FF8940;" cx="222.871" cy="256" r="186.729"/><g><path style="fill:#A63F00;" d="M222.871,201.788c-29.892,0-54.212-24.319-54.212-54.212s24.319-54.212,54.212-54.212 s54.212,24.319,54.212,54.212S252.763,201.788,222.871,201.788z"/><path style="fill:#A63F00;" d="M331.294,201.788c29.892,0,54.212,24.319,54.212,54.212s-24.319,54.212-54.212,54.212 c-29.892,0-54.212-24.319-54.212-54.212S301.402,201.788,331.294,201.788z"/><path style="fill:#A63F00;" d="M168.659,256c0,29.892-24.319,54.212-54.212,54.212S60.235,285.892,60.235,256 s24.319-54.212,54.212-54.212S168.659,226.108,168.659,256z"/><path style="fill:#A63F00;" d="M222.871,310.212c29.892,0,54.212,24.319,54.212,54.212c0,29.892-24.319,54.212-54.212,54.212 s-54.212-24.319-54.212-54.212C168.659,334.531,192.978,310.212,222.871,310.212z"/></g></svg>